<svg width="256" height="256" viewBox="0 0 256 256" fill="none" xmlns="http://www.w3.org/2000/svg">
  <defs>
    <linearGradient id="bgGradient" x1="32" y1="20" x2="220" y2="244" gradientUnits="userSpaceOnUse">
      <stop stop-color="#4A4643"/>
      <stop offset="1" stop-color="#232220"/>
    </linearGradient>
    <linearGradient id="glassSheen" x1="56" y1="34" x2="175" y2="141" gradientUnits="userSpaceOnUse">
      <stop stop-color="#FFFFFF" stop-opacity="0.38"/>
      <stop offset="1" stop-color="#FFFFFF" stop-opacity="0.02"/>
    </linearGradient>
    <filter id="softShadow" x="14" y="8" width="228" height="238" filterUnits="userSpaceOnUse" color-interpolation-filters="sRGB">
      <feDropShadow dx="0" dy="10" stdDeviation="10" flood-color="#000000" flood-opacity="0.42"/>
    </filter>
  </defs>
  <g filter="url(#softShadow)">
    <path d="M48 18H208V156C208 199.5 176.3 229.1 128 240C79.7 229.1 48 199.5 48 156V18Z" fill="url(#bgGradient)"/>
    <path d="M56 26H200V153.4C200 192.3 171.8 218.4 128 228.6C84.2 218.4 56 192.3 56 153.4V26Z" stroke="#CABAAE" stroke-opacity="0.58" stroke-width="2"/>
    <path d="M66 34H190V118C174.5 95.7 153.5 83.5 125.4 81.5C98.2 79.6 78.4 90.3 66 112.6V34Z" fill="url(#glassSheen)"/>
    <circle cx="128" cy="126" r="56" stroke="#CABAAE" stroke-opacity="0.72" stroke-width="2"/>
    <path d="M97 161V94H109.3L128 123.6L146.7 94H159V161H146.9V117L129.8 144.2H126.2L109.1 117V161H97Z" fill="#E9DFD7"/>
    <path d="M118.2 161L145.8 94H158.8L131.1 161H118.2Z" fill="#CABAAE"/>
    <circle cx="128" cy="198" r="2.4" fill="#CABAAE"/>
  </g>
</svg>
